<?xml version="1.0" encoding="UTF-8"?>
<svg version="1.1" xmlns="http://www.w3.org/2000/svg" width="500" height="500">
<path d="M0 0 C4.60908202 3.79257245 9.13646856 7.71849981 13.359375 11.94140625 C13.689375 4.68140625 14.019375 -2.57859375 14.359375 -10.05859375 C21.75681415 -10.13347439 29.15402635 -10.18753769 36.55175781 -10.22338867 C39.0615626 -10.23835481 41.57134179 -10.25873497 44.08105469 -10.28491211 C74.12637897 -10.59015345 98.01777152 -6.42118958 120.55078125 15.02734375 C128.93130699 23.85067614 135.0579992 35.25584338 138.359375 46.94140625 C138.53452637 47.55733643 138.70967773 48.1732666 138.89013672 48.80786133 C144.41599457 70.4257468 140.59214621 94.0808055 129.484375 113.17724609 C126.66118596 117.60440842 123.10561267 121.29583524 119.359375 124.94140625 C118.451875 125.89015625 117.544375 126.83890625 116.609375 127.81640625 C114.29178879 130.00523767 111.88268617 131.99485192 109.359375 133.94140625 C108.6375 133.19890625 107.915625 132.45640625 107.171875 131.69140625 C101.00034217 125.65701859 94.63026505 121.43398372 85.7734375 120.73828125 C78.76176314 121.13642049 72.00709038 123.69511409 66.7265625 128.39453125 C61.11641898 134.77732927 60.04487411 140.5139107 58.359375 148.94140625 C43.839375 148.94140625 29.319375 148.94140625 14.359375 148.94140625 C14.029375 141.35140625 13.699375 133.76140625 13.359375 125.94140625 C12.10125 127.28203125 10.843125 128.62265625 9.546875 130.00390625 C4.61890771 134.92414946 -0.60953669 138.50368591 -6.640625 141.94140625 C-7.41921875 142.40417969 -8.1978125 142.86695313 -9 143.34375 C-26.83601088 153.18946742 -50.46368903 153.92314525 -69.91577148 148.85083008 C-80.60306893 145.67993223 -90.33954765 140.39419832 -98.640625 132.94140625 C-99.45015625 132.2246875 -100.2596875 131.50796875 -101.09375 130.76953125 C-118.08995109 114.81604189 -125.90475469 93.62704438 -126.64453125 70.58203125 C-126.77127484 60.00672387 -125.63434536 48.80019022 -121.640625 38.94140625 C-119.81265092 37.11343217 -117.21349444 37.59717442 -114.76147461 37.39770508 C-99.6407307 36.11577184 -88.38500858 31.3229154 -77.890625 20.12890625 C-70.01127155 10.71390155 -67.44349198 -0.20570235 -65.640625 -12.05859375 C-42.78258314 -15.84572495 -19.18103016 -14.38577262 0 0 Z M-75.390625 34.62890625 C-84.8746819 46.11539744 -87.26339669 61.12363138 -86.4296875 75.60546875 C-84.91714974 88.47630893 -80.7494006 99.43432005 -70.640625 107.94140625 C-58.71560529 115.21492759 -46.99824733 116.73012049 -33.29296875 114.36328125 C-23.52658667 111.27176462 -15.74144559 103.75782699 -10.890625 94.85546875 C-4.63641917 80.27535141 -3.23189562 64.01723031 -8.640625 48.94140625 C-13.51662156 37.46600056 -19.28850852 28.73626203 -31.2109375 23.8984375 C-47.58426067 18.81459226 -63.53787252 22.13615634 -75.390625 34.62890625 Z M51.359375 22.94140625 C51.359375 53.63140625 51.359375 84.32140625 51.359375 115.94140625 C66.40667134 115.94140625 77.04051883 114.00612057 88.109375 103.69140625 C97.1222789 94.01954003 101.30767309 82.05645631 101.359375 68.94140625 C100.79972356 56.09967448 96.29463502 44.01345083 87.30078125 34.6171875 C76.25640177 25.08391024 65.94924211 23.91406406 51.359375 22.94140625 Z " fill="#000000" transform="translate(254.640625,147.05859375)"/>
<path d="M0 0 C3.26795308 2.40249941 5.55592193 5.05853471 6.47265625 9.06640625 C6.66598116 13.49606823 5.74138299 16.57327126 3 20 C-0.81208642 23.40689719 -3.62894945 23.50889847 -8.58984375 23.35546875 C-12.02979826 22.84811728 -13.71319039 21.57266081 -16 19 C-18.52481154 15.51335549 -18.43474022 12.20248882 -18 8 C-16.17774814 4.35549628 -14.57798075 2.40721371 -11.25 0.0625 C-7.12098507 -1.28737026 -4.09160165 -1.58306016 0 0 Z " fill="#010101" transform="translate(346,283)"/>
<path d="M0 0 C5.02137798 1.0042756 5.86243419 1.39760962 9 5 C9.556875 4.175 10.11375 3.35 10.6875 2.5 C11.450625 1.675 12.21375 0.85 13 0 C14.65 0 16.3 0 18 0 C18 5.28 18 10.56 18 16 C16.35 16 14.7 16 13 16 C12.67 14.02 12.34 12.04 12 10 C11.67 10.33 11.34 10.66 11 11 C9.33382885 11.04063832 7.66611905 11.042721 6 11 C5.67 10.34 5.34 9.68 5 9 C4.67 11.31 4.34 13.62 4 16 C2.68 16 1.36 16 0 16 C0 10.72 0 5.44 0 0 Z " fill="#010101" transform="translate(186,316)"/>
<path d="M0 0 C2.375 1.5625 2.375 1.5625 4 4 C4.69140297 7.78329491 4.47487049 10.91059124 2.9375 14.4375 C0.01717965 16.79259706 -2.29462195 16.93611417 -6 17 C-8.94755732 15.65437601 -10.54277272 14.91445456 -12 12 C-12.58394161 4.75912409 -12.58394161 4.75912409 -10.125 1.5625 C-6.34288972 -1.21846344 -4.57308652 -1.1890025 0 0 Z M-6 4 C-6.66 4.66 -7.32 5.32 -8 6 C-7.67958603 8.60280568 -7.67958603 8.60280568 -7 11 C-4.60280568 11.67958603 -4.60280568 11.67958603 -2 12 C-1.34 11.34 -0.68 10.68 0 10 C-0.32041397 7.39719432 -0.32041397 7.39719432 -1 5 C-3.39719432 4.32041397 -3.39719432 4.32041397 -6 4 Z " fill="#010101" transform="translate(348,316)"/>
<path d="M0 0 C2.375 1.5625 2.375 1.5625 4 4 C4.5596966 6.78134945 4.5596966 9.21865055 4 12 C1.95694308 15.06458538 0.55920198 15.82153128 -2.9375 16.9375 C-6.59872681 17.01221891 -8.1304674 16.21363944 -11 14 C-12.59616743 10.80766515 -12.51466114 7.46538503 -12 4 C-8.34417575 -0.75257152 -5.74337249 -1.49327685 0 0 Z M-6 4 C-6.66 4.66 -7.32 5.32 -8 6 C-7.67958603 8.60280568 -7.67958603 8.60280568 -7 11 C-4.60280568 11.67958603 -4.60280568 11.67958603 -2 12 C-1.34 11.34 -0.68 10.68 0 10 C-0.32041397 7.39719432 -0.32041397 7.39719432 -1 5 C-3.39719432 4.32041397 -3.39719432 4.32041397 -6 4 Z " fill="#010101" transform="translate(160,316)"/>
<path d="M0 0 C3.63 0 7.26 0 11 0 C11.66 1.65 12.32 3.3 13 5 C12.62875 5.804375 12.2575 6.60875 11.875 7.4375 C11.58625 8.283125 11.2975 9.12875 11 10 C12.7628112 13.31180732 12.7628112 13.31180732 15 16 C12.25 16.3125 12.25 16.3125 9 16 C6.625 13.5 6.625 13.5 5 11 C4.67 12.65 4.34 14.3 4 16 C2.68 16 1.36 16 0 16 C0 10.72 0 5.44 0 0 Z M4 4 C4 4.66 4 5.32 4 6 C5.32 6 6.64 6 8 6 C8 5.34 8 4.68 8 4 C6.68 4 5.36 4 4 4 Z " fill="#010101" transform="translate(229,316)"/>
<path d="M0 0 C8.30078125 -0.390625 8.30078125 -0.390625 11 0 C13.01293528 1.93997174 13.85275954 3.26091064 14.3984375 6 C14.39070313 6.66 14.38296875 7.32 14.375 8 C14.38273437 8.66 14.39046875 9.32 14.3984375 10 C13.85275954 12.73908936 13.01293528 14.06002826 11 16 C7.27101421 16.53965062 3.78628294 16.17817802 0 16 C0 10.72 0 5.44 0 0 Z M4 4 C4 6.64 4 9.28 4 12 C5.65 12 7.3 12 9 12 C10.01540112 7.89776415 10.01540112 7.89776415 9 4 C7.35 4 5.7 4 4 4 Z " fill="#010101" transform="translate(257,316)"/>
<path d="M0 0 C1.65 0 3.3 0 5 0 C10.37129841 10.37357631 10.37129841 10.37357631 12 16 C10.35 16 8.7 16 7 16 C6.67 15.01 6.34 14.02 6 13 C3.02934491 13.34227572 3.02934491 13.34227572 0 14 C-0.33 14.66 -0.66 15.32 -1 16 C-2.65 16 -4.3 16 -6 16 C-4.25192871 10.53262809 -2.34205919 5.24175152 0 0 Z M2 7 C2 7.66 2 8.32 2 9 C2.66 8.67 3.32 8.34 4 8 C3.34 7.67 2.68 7.34 2 7 Z " fill="#010101" transform="translate(292,316)"/>
<path d="M0 0 C1.65 0 3.3 0 5 0 C6.00696568 2.10084209 7.0053589 4.20579489 8 6.3125 C8.556875 7.48425781 9.11375 8.65601563 9.6875 9.86328125 C11 13 11 13 11 16 C9.35 15.67 7.7 15.34 6 15 C6 14.34 6 13.68 6 13 C3.69 13 1.38 13 -1 13 C-1 13.99 -1 14.98 -1 16 C-2.65 16 -4.3 16 -6 16 C-5.37183502 12.05050296 -4.1354471 8.80107972 -2.4375 5.1875 C-1.98246094 4.21167969 -1.52742187 3.23585938 -1.05859375 2.23046875 C-0.70925781 1.49441406 -0.35992187 0.75835937 0 0 Z M2 6 C1.67 6.99 1.34 7.98 1 9 C1.99 8.67 2.98 8.34 4 8 C3.34 7.34 2.68 6.68 2 6 Z " fill="#010101" transform="translate(214,316)"/>
<path d="M0 0 C1.32 0 2.64 0 4 0 C4.33 3.96 4.66 7.92 5 12 C5.99 11.67 6.98 11.34 8 11 C8.33 7.37 8.66 3.74 9 0 C10.32 0 11.64 0 13 0 C13.10794277 2.26979665 13.18556176 4.54105196 13.25 6.8125 C13.29640625 8.07707031 13.3428125 9.34164063 13.390625 10.64453125 C13 14 13 14 11.17578125 15.95703125 C8.07839344 17.44177549 6.24395801 16.96628536 3 16 C1.328125 14.86328125 1.328125 14.86328125 0 13 C-0.29296875 9.86328125 -0.29296875 9.86328125 -0.1875 6.3125 C-0.16042969 5.13300781 -0.13335937 3.95351563 -0.10546875 2.73828125 C-0.07066406 1.83464844 -0.03585938 0.93101562 0 0 Z " fill="#010101" transform="translate(168,316)"/>
<path d="M0 0 C1.32 0 2.64 0 4 0 C4 3.96 4 7.92 4 12 C5.98 12 7.96 12 10 12 C10.33 13.32 10.66 14.64 11 16 C7.37 16 3.74 16 0 16 C0 10.72 0 5.44 0 0 Z " fill="#010101" transform="translate(322,316)"/>
<path d="M0 0 C1.32 0 2.64 0 4 0 C4 3.96 4 7.92 4 12 C5.98 12 7.96 12 10 12 C10.33 12.99 10.66 13.98 11 15 C10 16 10 16 7.71484375 16.09765625 C5.14322917 16.06510417 2.57161458 16.03255208 0 16 C0 10.72 0 5.44 0 0 Z " fill="#010101" transform="translate(308,316)"/>
<path d="M0 0 C2.31 0 4.62 0 7 0 C7 5.28 7 10.56 7 16 C4.69 16 2.38 16 0 16 C0 15.01 0 14.02 0 13 C0.66 13 1.32 13 2 13 C2 9.7 2 6.4 2 3 C1.34 3 0.68 3 0 3 C0 2.01 0 1.02 0 0 Z " fill="#010101" transform="translate(275,316)"/>
</svg>
